<?xml version="1.0" encoding="utf-8"?>
<!-- Generator: Adobe Illustrator 21.1.0, SVG Export Plug-In . SVG Version: 6.00 Build 0)  -->
<svg version="1.1" id="图层_1" xmlns="http://www.w3.org/2000/svg" xmlns:xlink="http://www.w3.org/1999/xlink" x="0px" y="0px"
	 viewBox="0 0 100 100" style="enable-background:new 0 0 100 100;" xml:space="preserve">
<style type="text/css">
	.st0{fill:#012063;}
</style>
<path class="st0" d="M47.3,39.3L56,48c0.5,0.5,0.8,1.2,0.8,1.9s-0.3,1.4-0.8,1.9l-8.7,8.7c-0.5,0.5-1.1,0.7-1.7,0.7
	c-1.4,0-2.4-1.1-2.4-2.4v-4.4h-9.1c-1.2,0-2.3-1-2.3-2.3v-4.6c0-1.2,1-2.3,2.3-2.3h9.1V41c0-1.4,1.1-2.4,2.4-2.4
	C46.2,38.6,46.8,38.8,47.3,39.3z M56.8,61.3h4.6c1.2,0,2.3-1,2.3-2.3V40.9c0-1.2-1-2.3-2.3-2.3h-4.6c-1.2,0-2.3-1-2.3-2.3
	s1-2.3,2.3-2.3h4.6c3.7,0,6.8,3.1,6.8,6.8V59c0,3.7-3.1,6.8-6.8,6.8h-4.6c-1.2,0-2.3-1-2.3-2.3C54.5,62.3,55.6,61.3,56.8,61.3z"/>
</svg>
